<?xml version="1.0" standalone="no"?>
<!DOCTYPE svg PUBLIC "-//W3C//DTD SVG 20010904//EN"
 "http://www.w3.org/TR/2001/REC-SVG-20010904/DTD/svg10.dtd">
<svg version="1.0" xmlns="http://www.w3.org/2000/svg"
 width="655.000000pt" height="717.000000pt" viewBox="0 0 655.000000 717.000000"
 preserveAspectRatio="xMidYMid meet">

<g transform="translate(0.000000,717.000000) scale(0.100000,-0.100000)"
fill="#000000" stroke="none">
<path d="M2805 6915 c-133 -24 -265 -102 -368 -215 -86 -95 -156 -252 -157
-350 0 -19 -3 -45 -6 -57 l-6 -22 -556 -4 c-580 -4 -573 -3 -692 -50 -159 -61
-306 -208 -367 -367 -47 -119 -46 -112 -50 -683 -4 -554 1 -694 32 -810 43
-166 137 -335 249 -449 l56 -57 0 -460 0 -460 -208 -3 -208 -3 -67 -33 c-67
-33 -117 -83 -150 -148 -35 -68 -39 -148 -34 -710 4 -598 3 -586 65 -717 98
-207 305 -355 527 -376 l70 -6 7 -70 c16 -158 81 -290 199 -405 90 -88 184
-142 295 -170 76 -20 114 -20 1834 -20 1720 0 1758 0 1834 20 111 28 205 82
295 170 118 115 183 247 199 405 l7 70 70 6 c222 21 429 169 527 376 62 131
61 119 65 717 5 562 1 642 -34 710 -33 65 -83 115 -150 148 l-67 33 -208 3
-208 3 0 460 0 460 56 57 c112 114 206 283 249 449 31 116 36 256 32 810 -4
571 -3 564 -50 683 -61 159 -208 306 -367 367 -119 47 -112 46 -692 50 l-556
4 -6 22 c-3 12 -6 38 -6 57 -1 100 -73 257 -163 356 -104 113 -230 185 -367
210 -103 18 -824 18 -925 -1z m2465 -1845 c0 -517 -1 -531 -21 -587 -28 -72
-93 -142 -167 -180 l-57 -28 -711 -3 -711 -3 -6 45 c-15 105 -84 198 -184 248
-58 28 -77 33 -143 33 -66 0 -85 -5 -143 -33 -100 -50 -169 -143 -184 -248
l-6 -45 -711 3 -711 3 -57 28 c-74 38 -139 108 -167 180 -20 56 -21 70 -21
587 l0 530 2000 0 2000 0 0 -530z m-2326 -1518 c14 -104 94 -209 194 -255 66
-31 198 -31 264 0 100 46 180 151 194 255 l7 48 668 0 669 0 0 -1335 0 -1335
-1670 0 -1670 0 0 1335 0 1335 669 0 668 0 7 -48z"/>
<path d="M2484 2239 c-104 -40 -182 -137 -203 -252 -27 -148 58 -303 198 -359
l56 -23 735 0 735 0 56 23 c66 27 144 99 171 159 80 180 -1 386 -178 453 -53
19 -75 20 -787 19 -705 0 -734 -1 -783 -20z"/>
</g>
</svg>
