<?xml version="1.0" standalone="no"?>
<!DOCTYPE svg PUBLIC "-//W3C//DTD SVG 20010904//EN"
 "http://www.w3.org/TR/2001/REC-SVG-20010904/DTD/svg10.dtd">
<svg version="1.0" xmlns="http://www.w3.org/2000/svg"
 width="836.000000pt" height="516.000000pt" viewBox="0 0 836.000000 516.000000"
 preserveAspectRatio="xMidYMid meet">

<g transform="translate(0.000000,516.000000) scale(0.100000,-0.100000)"
fill="#000000" stroke="none">
<path d="M5346 4834 c-266 -64 -456 -306 -456 -581 0 -114 19 -193 68 -287 72
-137 190 -237 342 -289 159 -56 338 -38 495 49 75 42 185 157 227 239 56 108
71 180 65 310 -6 135 -30 209 -101 314 -139 205 -398 304 -640 245z"/>
<path d="M6555 4134 c-54 -20 -57 -22 -585 -494 -256 -228 -473 -421 -483
-429 -14 -11 -22 -9 -57 21 -47 41 -151 94 -212 108 -58 13 -175 13 -240 -1
-66 -14 -165 -58 -215 -96 -21 -15 -276 -245 -566 -511 -291 -266 -533 -482
-538 -480 -4 2 -445 395 -980 873 -534 479 -992 887 -1018 908 -102 83 -252
97 -377 36 -221 -109 -288 -362 -139 -527 20 -23 605 -551 1301 -1174 892
-800 1282 -1143 1327 -1168 59 -33 67 -35 157 -35 129 0 191 29 315 148 142
135 1190 1090 1221 1111 25 18 825 729 1250 1113 217 195 239 225 239 328 -1
103 -71 207 -174 257 -58 28 -168 34 -226 12z"/>
<path d="M55 3954 c-35 -29 -55 -52 -53 -63 2 -9 575 -557 1273 -1216 699
-659 1425 -1345 1614 -1524 189 -180 373 -350 410 -379 119 -94 287 -169 434
-192 102 -17 270 -8 367 20 118 33 302 129 410 213 85 67 3362 2927 3435 2998
l30 29 -60 55 c-33 30 -65 53 -71 52 -6 -1 -775 -670 -1708 -1487 -934 -817
-1730 -1509 -1770 -1538 -227 -170 -458 -226 -676 -165 -71 20 -192 81 -256
130 -28 21 -370 340 -760 709 -1620 1532 -2547 2404 -2554 2404 -5 0 -34 -21
-65 -46z"/>
</g>
</svg>
