<?xml version="1.0" standalone="no"?>
<!DOCTYPE svg PUBLIC "-//W3C//DTD SVG 20010904//EN"
 "http://www.w3.org/TR/2001/REC-SVG-20010904/DTD/svg10.dtd">
<svg version="1.0" xmlns="http://www.w3.org/2000/svg"
 width="470.000000pt" height="813.000000pt" viewBox="0 0 470.000000 813.000000"
 preserveAspectRatio="xMidYMid meet">

<g transform="translate(0.000000,813.000000) scale(0.100000,-0.100000)"
fill="#000000" stroke="none">
<path d="M0 8120 c0 -6 133 -11 378 -11 207 -1 348 -5 312 -9 -226 -23 -418
-188 -475 -408 -14 -56 -16 -136 -13 -670 l3 -607 26 -67 c37 -96 85 -172 149
-236 l55 -56 -60 -61 c-72 -72 -137 -191 -160 -290 -13 -57 -16 -126 -13 -404
3 -335 3 -336 30 -409 32 -89 76 -160 145 -233 l52 -55 -58 -61 c-67 -71 -134
-193 -156 -284 -11 -50 -15 -134 -15 -380 0 -283 2 -324 20 -394 26 -101 78
-194 153 -272 l60 -62 -54 -55 c-63 -63 -111 -139 -148 -234 l-26 -67 0 -370
0 -370 26 -67 c36 -92 82 -166 146 -233 l54 -56 -66 -71 c-72 -78 -125 -176
-151 -276 -13 -53 -15 -118 -12 -405 4 -321 5 -346 26 -400 68 -184 192 -318
355 -384 131 -53 93 -52 1762 -53 1030 0 1572 4 1614 11 243 39 420 184 509
417 26 66 26 70 30 397 3 268 0 344 -12 403 -22 108 -74 207 -152 290 l-66 72
64 68 c73 78 129 182 153 286 14 58 16 123 13 400 -3 309 -5 335 -26 396 -30
90 -87 182 -151 246 l-54 54 54 57 c66 70 119 155 151 243 22 62 23 79 26 394
3 277 1 341 -13 403 -24 108 -84 219 -158 295 l-62 63 62 62 c72 72 145 210
162 307 6 34 11 192 11 361 0 268 -2 311 -20 379 -27 106 -82 206 -154 280
l-61 63 55 56 c65 66 112 141 149 235 l26 67 0 630 0 630 -25 65 c-81 206
-250 338 -460 360 -36 4 105 8 313 9 244 0 377 5 377 11 0 7 -790 10 -2350 10
-1560 0 -2350 -3 -2350 -10z m4075 -782 c64 -34 108 -80 137 -143 23 -49 23
-57 23 -385 0 -327 -1 -336 -23 -392 -32 -80 -99 -150 -180 -190 l-66 -33
-213 -3 -212 -3 -6 23 c-3 13 -12 56 -20 95 -78 383 -360 717 -725 861 -161
63 -237 77 -440 77 -162 0 -196 -3 -275 -24 -241 -63 -434 -175 -597 -349
-166 -178 -275 -402 -313 -645 l-6 -38 -212 3 c-210 3 -213 3 -275 32 -78 36
-151 113 -184 194 -22 56 -23 65 -23 397 0 305 2 344 18 378 38 81 124 151
207 168 19 4 778 6 1685 5 l1650 -1 50 -27z m-1537 -374 c285 -58 532 -257
657 -527 29 -63 45 -115 69 -219 l6 -28 -920 0 -921 0 7 38 c30 167 135 364
255 482 136 132 291 216 469 254 90 20 283 20 378 0z m-2061 -1336 c-3 -8 -6
-5 -6 6 -1 11 2 17 5 13 3 -3 4 -12 1 -19z m0 -610 c-3 -8 -6 -5 -6 6 -1 11 2
17 5 13 3 -3 4 -12 1 -19z m3750 0 c-3 -8 -6 -5 -6 6 -1 11 2 17 5 13 3 -3 4
-12 1 -19z m-3616 -205 c13 -16 12 -17 -3 -4 -17 13 -22 21 -14 21 2 0 10 -8
17 -17z m-134 -635 c-3 -8 -6 -5 -6 6 -1 11 2 17 5 13 3 -3 4 -12 1 -19z m0
-610 c-3 -8 -6 -5 -6 6 -1 11 2 17 5 13 3 -3 4 -12 1 -19z m3750 0 c-3 -8 -6
-5 -6 6 -1 11 2 17 5 13 3 -3 4 -12 1 -19z m-3686 -135 c13 -16 12 -17 -3 -4
-10 7 -18 15 -18 17 0 8 8 3 21 -13z m94 -88 l20 -16 -20 10 c-11 5 -29 17
-40 26 l-20 16 20 -10 c11 -5 29 -17 40 -26z m132 -51 c-3 -3 -12 -4 -19 -1
-8 3 -5 6 6 6 11 1 17 -2 13 -5z m2371 -281 c-434 -2 -1142 -2 -1575 0 -434 1
-79 2 787 2 866 0 1221 -1 788 -2z m857 -13 c13 -5 14 -9 5 -9 -8 0 -24 4 -35
9 -13 5 -14 9 -5 9 8 0 24 -4 35 -9z m65 -36 c0 -2 -9 0 -20 6 -11 6 -20 13
-20 16 0 2 9 0 20 -6 11 -6 20 -13 20 -16z m-3460 -27 c0 -2 -17 -19 -37 -38
l-38 -34 34 38 c33 34 41 42 41 34z m-87 -112 c-3 -9 -8 -14 -10 -11 -3 3 -2
9 2 15 9 16 15 13 8 -4z m117 -932 c0 -8 -38 17 -51 33 -9 11 -2 9 19 -6 17
-13 32 -25 32 -27z m35 -21 c-3 -3 -11 0 -18 7 -9 10 -8 11 6 5 10 -3 15 -9
12 -12z m148 -39 c-7 -2 -19 -2 -25 0 -7 3 -2 5 12 5 14 0 19 -2 13 -5z m3104
1 c-3 -3 -12 -4 -19 -1 -8 3 -5 6 6 6 11 1 17 -2 13 -5z m-805 -271 c-426 -2
-1119 -2 -1540 0 -422 1 -74 2 773 2 847 0 1192 -1 767 -2z m-2442 -37 c0 -2
-7 -7 -16 -10 -8 -3 -12 -2 -9 4 6 10 25 14 25 6z m3491 -103 c13 -16 12 -17
-3 -4 -17 13 -22 21 -14 21 2 0 10 -8 17 -17z m-3648 -48 c-3 -9 -8 -14 -10
-11 -3 3 -2 9 2 15 9 16 15 13 8 -4z m7 -815 c6 -11 8 -20 6 -20 -3 0 -10 9
-16 20 -6 11 -8 20 -6 20 3 0 10 -9 16 -20z m50 -65 c19 -19 32 -35 29 -35 -3
0 -20 16 -39 35 -19 19 -32 35 -29 35 3 0 20 -16 39 -35z m3600 32 c0 -2 -10
-12 -22 -23 l-23 -19 19 23 c18 21 26 27 26 19z"/>
</g>
</svg>
